<svg width="136" height="146" viewBox="0 0 119 129" fill="none" xmlns="http://www.w3.org/2000/svg">
<path d="M47.8708 26.2772L48.7553 26.9932L49.3517 26.0241L60.4818 7.93766L71.1386 26.008L71.6464 26.8691L72.5077 26.3615L98.1583 11.246L87.5557 41.6709L87.0925 43H88.5H112.618L89.5662 54.099L88.2845 54.7161L89.2991 55.7132L116.262 82.2114L90.1029 79.5053L88.4914 79.3386L89.0647 80.8539L101.841 114.619L74.1021 93.7016L73.0407 92.9012L72.5659 94.1429L60.5375 125.602L49.443 94.1672L49.0065 92.9303L47.9293 93.6788L20.7384 112.574L30.461 78.7765L30.9006 77.2483L29.3329 77.5141L3.01868 81.9741L30.1948 55.7192L31.7386 54.2278L29.6036 54.0054L9.01467 51.8607L26.9472 42.8944L28.4379 42.1491L27.0787 41.1845L14.137 32H29.5H30.9815L30.4274 30.626L19.371 3.20594L47.8708 26.2772Z" fill="url(#paint0_linear_133_8)" stroke="black" stroke-width="2"/>
<defs>
<linearGradient id="paint0_linear_133_8" x1="75.5" y1="37.5" x2="44" y2="75.5" gradientUnits="userSpaceOnUse">
<stop stop-color="white"/>
<stop offset="0.328125" stop-color="#FFE59F"/>
<stop offset="1" stop-color="#FFC80C"/>
</linearGradient>
</defs>
</svg>
