<svg width="96" height="96" viewBox="0 0 128 127" fill="none" xmlns="http://www.w3.org/2000/svg">
<mask id="path-1-inside-1_135_31" fill="white">
<path fill-rule="evenodd" clip-rule="evenodd" d="M78.3951 92.2575C85.4601 84.4822 89.753 74.2327 89.753 63C89.753 38.6995 69.6611 19 44.8765 19C20.0919 19 0 38.6995 0 63C0 87.3005 20.0919 107 44.8765 107C52.8717 107 60.3785 104.95 66.8801 101.357L73.8536 109.695L62.6623 112.873L96.4409 126.453L91.8436 89.413L85.2895 100.501L78.3951 92.2575Z"/>
</mask>
<path fill-rule="evenodd" clip-rule="evenodd" d="M78.3951 92.2575C85.4601 84.4822 89.753 74.2327 89.753 63C89.753 38.6995 69.6611 19 44.8765 19C20.0919 19 0 38.6995 0 63C0 87.3005 20.0919 107 44.8765 107C52.8717 107 60.3785 104.95 66.8801 101.357L73.8536 109.695L62.6623 112.873L96.4409 126.453L91.8436 89.413L85.2895 100.501L78.3951 92.2575Z" fill="white"/>
<path d="M78.3951 92.2575L76.9149 90.9125L75.7423 92.203L76.8609 93.5406L78.3951 92.2575ZM66.8801 101.357L68.4143 100.074L67.3562 98.8087L65.9127 99.6065L66.8801 101.357ZM73.8536 109.695L74.3999 111.619L77.3656 110.777L75.3878 108.412L73.8536 109.695ZM62.6623 112.873L62.116 110.949L56.4891 112.547L61.9163 114.729L62.6623 112.873ZM96.4409 126.453L95.6949 128.308L98.8436 129.574L98.4256 126.206L96.4409 126.453ZM91.8436 89.413L93.8284 89.1666L93.106 83.3466L90.1219 88.3953L91.8436 89.413ZM85.2895 100.501L83.7553 101.785L85.5711 103.956L87.0113 101.519L85.2895 100.501ZM87.753 63C87.753 73.7115 83.6617 83.4874 76.9149 90.9125L79.8753 93.6025C87.2584 85.4771 91.753 74.7538 91.753 63H87.753ZM44.8765 21C68.5939 21 87.753 39.841 87.753 63H91.753C91.753 37.5579 70.7283 17 44.8765 17V21ZM2 63C2 39.841 21.1591 21 44.8765 21V17C19.0247 17 -2 37.5579 -2 63H2ZM44.8765 105C21.1591 105 2 86.159 2 63H-2C-2 88.4421 19.0247 109 44.8765 109V105ZM65.9127 99.6065C59.7011 103.039 52.5262 105 44.8765 105V109C53.2171 109 61.056 106.861 67.8475 103.107L65.9127 99.6065ZM65.3459 102.64L72.3194 110.978L75.3878 108.412L68.4143 100.074L65.3459 102.64ZM73.3073 107.772L62.116 110.949L63.2086 114.797L74.3999 111.619L73.3073 107.772ZM61.9163 114.729L95.6949 128.308L97.1868 124.597L63.4083 111.018L61.9163 114.729ZM98.4256 126.206L93.8284 89.1666L89.8588 89.6593L94.4561 126.699L98.4256 126.206ZM90.1219 88.3953L83.5678 99.4838L87.0113 101.519L93.5653 90.4306L90.1219 88.3953ZM86.8237 99.2184L79.9293 90.9745L76.8609 93.5406L83.7553 101.785L86.8237 99.2184Z" fill="black" mask="url(#path-1-inside-1_135_31)"/>
<mask id="path-3-inside-2_135_31" fill="white">
<path fill-rule="evenodd" clip-rule="evenodd" d="M67.6936 25.0121L74.0497 16.7479L61.5166 13.1039L97.1548 0L91.6334 35.4262L85.8523 25.4958L79.0258 34.3715C85.7147 42.0653 89.753 52.0471 89.753 62.9549C89.753 87.2852 69.6611 107.009 44.8765 107.009C20.0919 107.009 0 87.2852 0 62.9549C0 38.6245 20.0919 18.9009 44.8765 18.9009C53.2073 18.9009 61.0079 21.1293 67.6936 25.0121Z"/>
</mask>
<path fill-rule="evenodd" clip-rule="evenodd" d="M67.6936 25.0121L74.0497 16.7479L61.5166 13.1039L97.1548 0L91.6334 35.4262L85.8523 25.4958L79.0258 34.3715C85.7147 42.0653 89.753 52.0471 89.753 62.9549C89.753 87.2852 69.6611 107.009 44.8765 107.009C20.0919 107.009 0 87.2852 0 62.9549C0 38.6245 20.0919 18.9009 44.8765 18.9009C53.2073 18.9009 61.0079 21.1293 67.6936 25.0121Z" fill="white"/>
<path d="M74.0497 16.7479L75.6351 17.9672L77.421 15.6452L74.6081 14.8274L74.0497 16.7479ZM67.6936 25.0121L66.6891 26.7416L68.208 27.6237L69.2789 26.2314L67.6936 25.0121ZM61.5166 13.1039L60.8264 11.2268L55.117 13.3261L60.9582 15.0244L61.5166 13.1039ZM97.1548 0L99.131 0.307997L99.6543 -3.04997L96.4646 -1.87713L97.1548 0ZM91.6334 35.4262L89.9049 36.4324L92.7413 41.3046L93.6095 35.7342L91.6334 35.4262ZM85.8523 25.4958L87.5807 24.4896L86.0825 21.916L84.2669 24.2765L85.8523 25.4958ZM79.0258 34.3715L77.4405 33.1521L76.443 34.449L77.5164 35.6837L79.0258 34.3715ZM72.4644 15.5286L66.1082 23.7928L69.2789 26.2314L75.6351 17.9672L72.4644 15.5286ZM60.9582 15.0244L73.4914 18.6684L74.6081 14.8274L62.0749 11.1835L60.9582 15.0244ZM96.4646 -1.87713L60.8264 11.2268L62.2068 14.9811L97.845 1.87713L96.4646 -1.87713ZM93.6095 35.7342L99.131 0.307997L95.1787 -0.307997L89.6572 35.1182L93.6095 35.7342ZM84.1238 26.502L89.9049 36.4324L93.3618 34.42L87.5807 24.4896L84.1238 26.502ZM80.6111 35.5908L87.4376 26.7151L84.2669 24.2765L77.4405 33.1521L80.6111 35.5908ZM77.5164 35.6837C83.9038 43.0305 87.753 52.5514 87.753 62.9549H91.753C91.753 51.5428 87.5257 41.1 80.5351 33.0592L77.5164 35.6837ZM87.753 62.9549C87.753 86.1459 68.5916 105.009 44.8765 105.009V109.009C70.7306 109.009 91.753 88.4245 91.753 62.9549H87.753ZM44.8765 105.009C21.1614 105.009 2 86.1459 2 62.9549H-2C-2 88.4245 19.0224 109.009 44.8765 109.009V105.009ZM2 62.9549C2 39.7638 21.1614 20.9009 44.8765 20.9009V16.9009C19.0224 16.9009 -2 37.4852 -2 62.9549H2ZM44.8765 20.9009C52.8467 20.9009 60.3018 23.032 66.6891 26.7416L68.698 23.2826C61.7141 19.2266 53.5679 16.9009 44.8765 16.9009V20.9009Z" fill="black" mask="url(#path-3-inside-2_135_31)"/>
<mask id="path-5-inside-3_135_31" fill="white">
<path fill-rule="evenodd" clip-rule="evenodd" d="M89.1036 70.4446C85.473 91.15 67.0534 106.905 44.8765 106.905C20.0919 106.905 0 87.2269 0 62.9526C0 38.6782 20.0919 19 44.8765 19C67.2314 19 85.7685 35.0091 89.1882 55.9602H100.462L95.8726 43.9731L128 63.9516L95.8726 80.9332L100.462 70.4446H89.1036Z"/>
</mask>
<path fill-rule="evenodd" clip-rule="evenodd" d="M89.1036 70.4446C85.473 91.15 67.0534 106.905 44.8765 106.905C20.0919 106.905 0 87.2269 0 62.9526C0 38.6782 20.0919 19 44.8765 19C67.2314 19 85.7685 35.0091 89.1882 55.9602H100.462L95.8726 43.9731L128 63.9516L95.8726 80.9332L100.462 70.4446H89.1036Z" fill="url(#paint0_linear_135_31)"/>
<path d="M89.1036 70.4446V68.4446H87.4238L87.1337 70.0991L89.1036 70.4446ZM89.1882 55.9602L87.2143 56.2824L87.4882 57.9602H89.1882V55.9602ZM100.462 55.9602V57.9602H103.37L102.33 55.245L100.462 55.9602ZM95.8726 43.9731L96.9287 42.2747L91.8782 39.1341L94.0048 44.6883L95.8726 43.9731ZM128 63.9516L128.935 65.7198L132.014 64.0923L129.056 62.2532L128 63.9516ZM95.8726 80.9332L94.0403 80.1315L91.7449 85.3772L96.8072 82.7014L95.8726 80.9332ZM100.462 70.4446L102.294 71.2463L103.52 68.4446H100.462V70.4446ZM87.1337 70.0991C83.6731 89.835 66.0952 104.905 44.8765 104.905V108.905C68.0115 108.905 87.273 92.4651 91.0736 70.79L87.1337 70.0991ZM44.8765 104.905C21.157 104.905 2 86.0833 2 62.9526H-2C-2 88.3705 19.0267 108.905 44.8765 108.905V104.905ZM2 62.9526C2 39.8218 21.157 21 44.8765 21V17C19.0267 17 -2 37.5347 -2 62.9526H2ZM44.8765 21C66.2659 21 83.9549 36.3132 87.2143 56.2824L91.1621 55.638C87.5821 33.705 68.1969 17 44.8765 17V21ZM100.462 53.9602H89.1882V57.9602H100.462V53.9602ZM94.0048 44.6883L98.5945 56.6753L102.33 55.245L97.7404 43.258L94.0048 44.6883ZM129.056 62.2532L96.9287 42.2747L94.8165 45.6715L126.944 65.65L129.056 62.2532ZM96.8072 82.7014L128.935 65.7198L127.065 62.1834L94.938 79.1651L96.8072 82.7014ZM98.63 69.6428L94.0403 80.1315L97.7049 81.735L102.294 71.2463L98.63 69.6428ZM89.1036 72.4446H100.462V68.4446H89.1036V72.4446Z" fill="black" mask="url(#path-5-inside-3_135_31)"/>
<defs>
<linearGradient id="paint0_linear_135_31" x1="15.8088" y1="99.036" x2="128.162" y2="66.8536" gradientUnits="userSpaceOnUse">
<stop stop-color="#F04E22"/>
<stop offset="0.427083" stop-color="#F58A49"/>
</linearGradient>
</defs>
</svg>
